<?xml version="1.0" standalone="no"?>
<!DOCTYPE svg PUBLIC "-//W3C//DTD SVG 20010904//EN"
 "http://www.w3.org/TR/2001/REC-SVG-20010904/DTD/svg10.dtd">
<svg version="1.0" xmlns="http://www.w3.org/2000/svg"
 width="500.000000pt" height="500.000000pt" viewBox="0 0 500.000000 500.000000"
 preserveAspectRatio="xMidYMid meet">

<g transform="translate(0.000000,500.000000) scale(0.100000,-0.100000)"
fill="#000000" stroke="none">
<path d="M1012 3305 c-74 -29 -107 -51 -182 -120 -61 -57 -92 -69 -219 -84
-46 -6 -85 -12 -86 -13 -1 -2 -7 -36 -13 -76 -18 -108 -16 -460 3 -547 9 -39
18 -85 22 -103 3 -18 10 -35 14 -38 5 -3 9 -11 9 -19 0 -32 78 -143 150 -214
103 -102 314 -241 365 -241 22 0 144 80 232 151 179 147 265 279 294 453 16
93 6 140 -56 271 -78 165 -85 202 -55 315 28 106 -27 209 -140 263 -37 18 -66
22 -160 24 -102 3 -122 0 -178 -22z m348 -134 c5 -21 7 -53 4 -70 -12 -60
-101 -125 -229 -166 -108 -35 -155 -67 -184 -129 -28 -60 -27 -110 5 -206 39
-116 34 -130 -85 -248 -82 -82 -100 -105 -111 -146 l-14 -49 -33 39 c-50 59
-99 160 -118 244 -23 100 -30 311 -16 448 14 135 16 141 50 148 14 3 46 11 71
18 25 8 46 13 47 12 1 -1 -7 -28 -18 -61 -16 -47 -20 -80 -17 -155 3 -103 20
-149 103 -281 32 -51 34 -59 24 -83 -7 -15 -28 -36 -47 -48 -43 -26 -27 -35
34 -18 95 27 116 100 69 247 -66 206 -7 309 217 381 111 36 184 81 214 131 10
17 19 31 21 31 1 0 7 -17 13 -39z m46 -196 c0 -44 6 -100 13 -124 11 -39 10
-45 -7 -65 -11 -11 -18 -26 -15 -33 2 -6 -1 -14 -6 -18 -6 -3 -11 -15 -11 -26
0 -10 -4 -19 -10 -19 -5 0 -10 -8 -10 -17 0 -48 -74 -69 -134 -38 -26 14 -31
14 -47 -1 -23 -21 -32 -80 -19 -123 15 -53 56 -89 121 -107 82 -23 123 -67
123 -132 0 -39 -7 -58 -33 -94 -33 -46 -106 -113 -171 -158 -19 -13 -37 -27
-40 -30 -9 -11 -81 -50 -92 -50 -17 0 -159 87 -201 123 -77 65 -59 138 61 252
116 110 132 163 92 295 -42 137 -21 197 85 248 36 18 95 46 131 64 69 33 116
80 136 136 11 28 13 30 22 15 6 -10 11 -54 12 -98z"/>
<path d="M3780 2801 c-87 -19 -153 -70 -192 -150 -17 -37 -22 -64 -22 -136 -1
-79 2 -97 28 -148 48 -98 134 -148 256 -148 86 0 135 17 196 67 66 53 88 110
88 224 0 66 -5 106 -16 131 -23 53 -82 114 -132 138 -49 23 -152 34 -206 22z
m112 -41 c43 -12 90 -63 109 -117 8 -23 13 -78 13 -138 -1 -116 -21 -173 -75
-219 -30 -25 -39 -28 -91 -24 -50 4 -63 9 -93 38 -121 117 -88 419 49 459 42
12 46 12 88 1z"/>
<path d="M3382 2788 c-18 -18 -14 -63 6 -81 22 -20 73 -22 90 -5 16 16 15 66
-2 84 -18 17 -77 19 -94 2z"/>
<path d="M1810 2783 c0 -3 13 -18 29 -32 26 -24 43 -62 171 -386 4 -11 15 -36
23 -55 9 -19 20 -48 26 -63 9 -22 17 -27 45 -27 l35 0 79 203 c43 111 87 225
97 252 10 28 34 65 52 83 l34 32 -80 0 c-77 0 -104 -11 -62 -25 39 -12 34 -47
-29 -200 -5 -11 -25 -64 -46 -118 -21 -53 -41 -94 -45 -90 -7 8 -20 41 -115
287 l-38 98 29 24 30 24 -117 0 c-65 0 -118 -3 -118 -7z"/>
<path d="M3145 2721 c-6 -20 -78 -90 -110 -109 -25 -13 -18 -21 22 -24 l31 -2
4 -162 c3 -139 6 -165 21 -182 37 -40 129 -34 176 12 28 28 24 44 -7 27 -30
-16 -49 -14 -72 9 -18 18 -20 33 -20 155 l0 134 58 3 c49 3 57 6 57 23 0 17
-8 20 -57 23 l-58 3 0 54 c0 48 -3 55 -19 55 -11 0 -22 -9 -26 -19z"/>
<path d="M2835 2633 c-69 -11 -124 -87 -110 -152 11 -50 33 -67 148 -115 55
-22 67 -79 23 -108 -39 -27 -112 6 -142 63 -19 37 -34 29 -34 -20 0 -52 18
-72 76 -82 80 -13 140 -1 180 36 30 29 34 38 34 85 0 45 -4 56 -31 81 -17 16
-35 29 -40 29 -15 0 -103 42 -121 58 -41 35 -8 92 52 92 27 0 42 -9 76 -45 47
-51 59 -47 49 16 -5 28 -13 43 -28 48 -32 12 -98 19 -132 14z"/>
<path d="M4248 2622 c-38 -8 -68 -18 -68 -23 0 -4 11 -19 25 -33 24 -24 25
-30 25 -151 0 -121 -1 -127 -25 -151 -14 -14 -25 -29 -25 -34 0 -6 41 -10 95
-10 98 0 119 10 75 38 -18 11 -20 23 -20 147 0 127 1 135 22 149 35 25 83 20
107 -10 19 -24 21 -40 21 -145 0 -113 -1 -118 -25 -137 -44 -35 -32 -42 75
-42 82 0 100 3 100 15 0 8 -4 15 -9 15 -5 0 -17 7 -25 16 -13 12 -16 40 -16
139 0 68 -5 136 -10 151 -29 75 -115 96 -197 49 l-43 -26 0 25 c0 14 -3 27 -7
29 -5 2 -38 -3 -75 -11z"/>
<path d="M2425 2616 c-145 -65 -153 -310 -12 -382 36 -19 135 -21 168 -4 34
17 89 71 89 87 0 19 -15 16 -57 -13 -31 -21 -46 -25 -81 -21 -64 7 -122 70
-122 132 l0 25 130 0 c130 0 130 0 130 24 0 60 -39 124 -92 152 -34 18 -113
17 -153 0z m105 -26 c11 -6 25 -29 31 -51 16 -52 6 -59 -80 -59 l-64 0 6 38
c4 22 17 46 32 60 29 24 47 27 75 12z"/>
<path d="M3388 2617 c-54 -12 -58 -20 -25 -47 20 -17 22 -27 25 -149 l4 -131
-31 -29 c-17 -16 -27 -31 -24 -35 3 -3 48 -6 100 -6 74 0 93 3 93 14 0 8 -9
18 -20 21 -19 6 -20 15 -20 191 l0 184 -27 -1 c-16 -1 -49 -6 -75 -12z"/>
</g>
</svg>
